<svg width="1160" height="700" viewBox="0 0 1160 700" fill="none" xmlns="http://www.w3.org/2000/svg">
<g id="blueprint">
<rect width="1160" height="700" fill="white"/>
<rect id="btn_pages" x="119" y="64" width="34" height="34" fill="#D9D9D9"/>
<rect id="pages" x="169" y="64" width="960" height="64" fill="#261A1A" fill-opacity="0.29"/>
<rect id="slots" x="169" y="152" width="960" height="448" fill="#131111" fill-opacity="0.34"/>
<rect id="staging" x="25" y="152" width="128" height="448" fill="#120D0D" fill-opacity="0.31"/>
<rect id="staging_cap" x="25" y="128" width="128" height="24" fill="#D9D9D9"/>
<rect id="solutions_cap" x="27" y="600" width="128" height="24" fill="#D9D9D9"/>
<rect id="slots_cap" x="169" y="128" width="128" height="24" fill="#D9D9D9"/>
<rect id="pages_cap" x="169" y="40" width="128" height="24" fill="#D9D9D9"/>
<rect id="btn_steam" x="25" y="64" width="85" height="34" fill="#D9D9D9"/>
<rect id="btn_detail" x="490" y="637" width="270" height="34" fill="#D9D9D9"/>
<rect id="btn_close" x="859" y="637" width="270" height="34" fill="#D9D9D9"/>
<rect id="btn_browse_sol" x="357" y="637" width="34" height="34" fill="#D9D9D9"/>
<rect id="sol1" x="59" y="624" width="64" height="64" fill="#D9D9D9"/>
<rect id="sol2" x="123" y="624" width="64" height="64" fill="#D9D9D9"/>
<rect id="sol3" x="187" y="624" width="64" height="64" fill="#D9D9D9"/>
<rect id="sol4" x="251" y="624" width="64" height="64" fill="#D9D9D9"/>
<rect id="btn_sol_nxt" x="317" y="626" width="32" height="60" fill="#D9D9D9"/>
<rect id="btn_sol_prv" x="25" y="626" width="32" height="60" fill="#D9D9D9"/>
</g>
</svg>
