<svg width="1096" height="647" viewBox="0 0 1096 647" fill="none" xmlns="http://www.w3.org/2000/svg">
<g id="customlevel">
<rect width="1096" height="647" fill="white"/>
<rect id="lb_level" x="140" y="73" width="347" height="505" fill="#D9D9D9"/>
<rect id="btn_official" x="8" y="73" width="124" height="34" fill="#D9D9D9"/>
<rect id="btn_local" x="8" y="117" width="124" height="34" fill="#D9D9D9"/>
<rect id="btn_workshop" x="8" y="160" width="124" height="34" fill="#D9D9D9"/>
<rect id="btn_browse_levels" x="8" y="545" width="124" height="34" fill="#D9D9D9"/>
<rect id="btn_wiki" x="8" y="499" width="36" height="34" fill="#D9D9D9"/>
<rect id="btn_local_folder" x="96" y="499" width="36" height="34" fill="#D9D9D9"/>
<rect id="btn_open_steam" x="573" y="544" width="34" height="34" fill="#C27D7D"/>
<rect id="btn_unsubscribe" x="609" y="544" width="34" height="34" fill="#C27D7D"/>
<rect id="btn_level_folder" x="501" y="544" width="34" height="34" fill="#C27D7D"/>
<rect id="btn_publish" x="537" y="544" width="34" height="34" fill="#C56767"/>
<rect id="btn_choose" x="663" y="602" width="300" height="34" fill="#D9D9D9"/>
<rect id="tb_desc" x="501" y="73" width="580" height="460" fill="#D9D9D9"/>
<rect id="btn_back" x="8" y="602" width="124" height="34" fill="#D9D9D9"/>
</g>
</svg>
