<svg width="225" height="305" viewBox="0 0 225 305" fill="none" xmlns="http://www.w3.org/2000/svg">
<g id="levelsidebar">
<rect width="225" height="304.5" fill="white"/>
<rect id="levelbox" x="8" y="35" width="208.5" height="170" fill="#D9D9D9"/>
<rect id="level_title" x="8" y="7" width="208.5" height="17.5" fill="#D9D9D9"/>
<rect id="extra1" x="73.5" y="211.5" width="17" height="17" fill="#D9D9D9"/>
<rect id="extra2" x="91.5" y="211.5" width="17" height="17" fill="#D9D9D9"/>
<rect id="extra3" x="109.5" y="211.5" width="17" height="17" fill="#D9D9D9"/>
<rect id="extra4" x="127.5" y="211.5" width="17" height="17" fill="#D9D9D9"/>
<rect id="extra5" x="145.5" y="211.5" width="17" height="17" fill="#D9D9D9"/>
<rect id="extra6" x="163.5" y="211.5" width="17" height="17" fill="#D9D9D9"/>
<rect id="extra7" x="181.5" y="211.5" width="17" height="17" fill="#D9D9D9"/>
<rect id="extra8" x="199.5" y="211.5" width="17" height="17" fill="#D9D9D9"/>
<rect id="btn_close" x="8" y="275.5" width="22" height="22" fill="#D9D9D9"/>
<rect id="btn_browse_sol" x="199.5" y="245.25" width="17" height="17" fill="#D9D9D9"/>
<rect id="btn_addsol" x="10.5" y="245.25" width="17" height="17" fill="#D9D9D9"/>
<rect id="sol1" x="50.5" y="238.75" width="32" height="32" fill="#D9D9D9"/>
<rect id="sol2" x="82.5" y="238.75" width="32" height="32" fill="#D9D9D9"/>
<rect id="sol3" x="114.5" y="238.75" width="32" height="32" fill="#D9D9D9"/>
<rect id="sol4" x="146.5" y="238.75" width="32" height="32" fill="#D9D9D9"/>
<rect id="btn_sol_nxt" x="179.5" y="239.75" width="16" height="30" fill="#D9D9D9"/>
<rect id="btn_sol_prv" x="33.5" y="239.75" width="16" height="30" fill="#D9D9D9"/>
</g>
</svg>
