<svg width="864" height="474" viewBox="0 0 864 474" fill="none" xmlns="http://www.w3.org/2000/svg">
<g id="main">
<rect width="864" height="474" fill="white"/>
<rect id="btn_new" x="4" y="4" width="17" height="17" fill="#D9D9D9"/>
<rect id="btn_play" x="4" y="30" width="17" height="17" fill="#D9D9D9"/>
<rect id="lower_bg" x="622" y="434" width="235" height="40" fill="#B93434" fill-opacity="0.49"/>
<rect id="btn_pause" x="22" y="30" width="17" height="17" fill="#D9D9D9"/>
<rect id="btn_rewind" x="4" y="48" width="17" height="17" fill="#D9D9D9"/>
<rect id="btn_forward" opacity="0.34" x="22" y="48" width="17" height="17" fill="#D9D9D9"/>
<rect id="btn_open" opacity="0.6" x="22" y="4" width="17" height="17" fill="#D9D9D9"/>
<rect id="btn_save" x="40" y="4" width="17" height="17" fill="#D9D9D9"/>
<rect id="btn_saveas" x="58" y="4" width="17" height="17" fill="#D9D9D9"/>
<rect id="btn_exit" x="112" y="4" width="17" height="17" fill="#D9D9D9"/>
<rect id="btn_brush" x="4" y="70" width="17" height="17" fill="#D9D9D9"/>
<rect id="btn_line" x="22" y="70" width="17" height="17" fill="#D9D9D9"/>
<rect id="btn_bucket" x="4" y="106" width="17" height="17" fill="#D9D9D9"/>
<rect id="btn_picker" x="22" y="106" width="17" height="17" fill="#D9D9D9"/>
<rect id="btn_extra1" x="4" y="145" width="17" height="17" fill="#D9D9D9"/>
<rect id="btn_extra2" x="22" y="145" width="17" height="17" fill="#D9D9D9"/>
<rect id="btn_extra3" x="4" y="163" width="17" height="17" fill="#D9D9D9"/>
<rect id="btn_extra4" x="22" y="163" width="17" height="17" fill="#D9D9D9"/>
<rect id="btn_marquee" x="4" y="88" width="17" height="17" fill="#D9D9D9"/>
<rect id="btn_text" x="22" y="88" width="17" height="17" fill="#D9D9D9"/>
<rect id="btn_extra5" x="4" y="181" width="17" height="17" fill="#D9D9D9"/>
<rect id="btn_extra6" x="22" y="181" width="17" height="17" fill="#D9D9D9"/>
<rect id="btn_extra7" x="4" y="199" width="17" height="17" fill="#D9D9D9"/>
<rect id="btn_extra8" x="22" y="199" width="17" height="17" fill="#D9D9D9"/>
<rect id="btn_campaign_level" x="146.5" y="4" width="202.5" height="17" fill="#D9D9D9"/>
<rect id="btn_wiki" x="94" y="4" width="17" height="17" fill="#D9D9D9"/>
<rect id="btn_blueprint" x="4" y="124" width="17" height="17" fill="#D9D9D9"/>
<rect id="btn_bluadd" x="22" y="124" width="17" height="17" fill="#B94040"/>
<rect id="btn_custom_level" x="357" y="4" width="100" height="17" fill="#D9D9D9"/>
<rect id="btn_settings" x="76" y="4" width="17" height="17" fill="#D9D9D9"/>
<rect id="canvas" x="50" y="32" width="807" height="395" fill="#C77B7B"/>
<rect id="btn_layer1" x="4" y="419" width="17" height="17" fill="#D9D9D9"/>
<rect id="btn_layer1_hide" x="22" y="419" width="17" height="17" fill="#D9D9D9"/>
<rect id="btn_layer2" x="4" y="401" width="17" height="17" fill="#D9D9D9"/>
<rect id="btn_layer2_hide" x="22" y="401" width="17" height="17" fill="#D9D9D9"/>
<rect id="btn_layer3" x="4" y="383" width="17" height="17" fill="#D9D9D9"/>
<rect id="btn_layer3_hide" x="22" y="383" width="17" height="17" fill="#D9D9D9"/>
<rect id="btn_layer_add" x="4" y="446" width="17" height="10" fill="#D9D9D9"/>
<rect id="btn_layer_rm" x="4" y="457" width="17" height="10" fill="#D9D9D9"/>
<rect id="rect_fg_color" x="43" y="436" width="34" height="34" fill="#271A9A"/>
<rect id="c1" x="77" y="436" width="17" height="17" fill="#D9D9D9"/>
<rect id="c3" x="94" y="436" width="17" height="17" fill="#D16363"/>
<rect id="c5" x="111" y="436" width="17" height="17" fill="#D9D9D9"/>
<rect id="c7" x="128" y="436" width="17" height="17" fill="#D16363"/>
<rect id="c9" x="145" y="436" width="17" height="17" fill="#D9D9D9"/>
<rect id="c11" x="162" y="436" width="17" height="17" fill="#D16363"/>
<rect id="c13" x="179" y="436" width="17" height="17" fill="#D9D9D9"/>
<rect id="c15" x="196" y="436" width="17" height="17" fill="#D16363"/>
<rect id="c17" x="213" y="436" width="17" height="17" fill="#D9D9D9"/>
<rect id="c19" x="230" y="436" width="17" height="17" fill="#D16363"/>
<rect id="c21" x="247" y="436" width="17" height="17" fill="#D9D9D9"/>
<rect id="c23" x="264" y="436" width="17" height="17" fill="#D16363"/>
<rect id="c25" x="281" y="436" width="17" height="17" fill="#D9D9D9"/>
<rect id="c27" x="298" y="436" width="17" height="17" fill="#D16363"/>
<rect id="c29" x="315" y="436" width="17" height="17" fill="#D9D9D9"/>
<rect id="c32" x="332" y="453" width="17" height="17" fill="#D9D9D9"/>
<rect id="c31" x="332" y="436" width="17" height="17" fill="#D16363"/>
<rect id="c2" x="77" y="453" width="17" height="17" fill="#D16363"/>
<rect id="c4" x="94" y="453" width="17" height="17" fill="#D9D9D9"/>
<rect id="c6" x="111" y="453" width="17" height="17" fill="#D16363"/>
<rect id="c8" x="128" y="453" width="17" height="17" fill="#D9D9D9"/>
<rect id="c10" x="145" y="453" width="17" height="17" fill="#D16363"/>
<rect id="c12" x="162" y="453" width="17" height="17" fill="#D9D9D9"/>
<rect id="c14" x="179" y="453" width="17" height="17" fill="#D16363"/>
<rect id="c16" x="196" y="453" width="17" height="17" fill="#D9D9D9"/>
<rect id="c18" x="213" y="453" width="17" height="17" fill="#D16363"/>
<rect id="c20" x="230" y="453" width="17" height="17" fill="#D9D9D9"/>
<rect id="c22" x="247" y="453" width="17" height="17" fill="#D16363"/>
<rect id="c24" x="264" y="453" width="17" height="17" fill="#D9D9D9"/>
<rect id="c26" x="281" y="453" width="17" height="17" fill="#D16363"/>
<rect id="c28" x="298" y="453" width="17" height="17" fill="#D9D9D9"/>
<rect id="c30" x="315" y="453" width="17" height="17" fill="#D16363"/>
<rect id="btn_side_level" x="722.5" y="437" width="34" height="34" fill="#D9D9D9"/>
<rect id="sep1" x="2" y="67" width="39" height="2" fill="#D9D9D9"/>
<rect id="sep2" x="2" y="142" width="39" height="2" fill="#D9D9D9"/>
</g>
</svg>
